#tb 0: 1/1200
0,          0,          0,        0,     9600, 0xc5921aa2
0,        100,        100,        0,     9600, 0x9032fc52
0,        200,        200,        0,     9600, 0x7db0038e
0,        300,        300,        0,     9600, 0x95b73c41
0,        400,        400,        0,     9600, 0x531e4189
0,        500,        500,        0,     9600, 0xb73390ec
0,        600,        600,        0,     9600, 0x958e8221
0,        700,        700,        0,     9600, 0xd393f8a6
0,        800,        800,        0,     9600, 0xa085da1c
0,        900,        900,        0,     9600, 0x57ace74f
0,       1000,       1000,        0,     9600, 0x5d11a308
0,       1100,       1100,        0,     9600, 0x13e133b7
0,       1200,       1200,        0,     9600, 0x494edb86
0,       1300,       1300,        0,     9600, 0x43a448ea
0,       1400,       1400,        0,     9600, 0x3562d35b
0,       1500,       1500,        0,     9600, 0x0bc655d2
0,       1600,       1600,        0,     9600, 0xbece73a1
0,       1700,       1700,        0,     9600, 0x82e7cfa1
0,       1800,       1800,        0,     9600, 0xda29fd8f
0,       1900,       1900,        0,     9600, 0x70fb700b
0,       2000,       2000,        0,     9600, 0xaf57a6b0
0,       2100,       2100,        0,     9600, 0x0a5ed9b9
0,       2200,       2200,        0,     9600, 0xf7c62c38
0,       2300,       2300,        0,     9600, 0x0aa2ccfd
0,       2400,       2400,        0,     9600, 0xc9adabae
0,       2500,       2500,        0,     9600, 0x67ff0aba
0,       2600,       2600,        0,     9600, 0xea79a465
0,       2700,       2700,        0,     9600, 0x8928c626
0,       2800,       2800,        0,     9600, 0x8dab4111
0,       2900,       2900,        0,     9600, 0x81ef63f9
0,       3000,       3000,        0,     9600, 0xf977bc5e
0,       3100,       3100,        0,     9600, 0x9e6a3f4a
0,       3200,       3200,        0,     9600, 0x77c92865
0,       3300,       3300,        0,     9600, 0x3915170d
0,       3400,       3400,        0,     9600, 0xbe19b995
0,       3500,       3500,        0,     9600, 0x3e8a3077
0,       3600,       3600,        0,     9600, 0x1331342e
0,       3700,       3700,        0,     9600, 0x4d692175
